<svg width="207" height="55" viewBox="0 0 207 55" fill="none" xmlns="http://www.w3.org/2000/svg">
<g clip-path="url(#clip0_501_19239)">
<path d="M98.1074 53.3016C97.5443 53.3016 97.1111 53.1711 96.7213 52.91C96.3315 52.6489 96.0716 52.3008 95.8983 51.8657L96.548 51.4741C96.7646 52.1703 97.2844 52.5619 98.1074 52.5619C98.4972 52.5619 98.8004 52.4749 99.017 52.3008C99.2335 52.1268 99.3202 51.9092 99.3202 51.6481C99.3202 51.3871 99.2335 51.1695 99.017 51.039C98.8004 50.9084 98.4539 50.7344 97.9341 50.6038C97.6742 50.5168 97.501 50.4733 97.371 50.4298C97.2411 50.3863 97.0678 50.2993 96.8946 50.2122C96.7213 50.1252 96.548 49.9947 96.4614 49.9076C96.3748 49.8206 96.2882 49.6901 96.2015 49.516C96.1149 49.342 96.0716 49.1679 96.0716 48.9504C96.0716 48.4282 96.2448 48.0366 96.5914 47.732C96.9379 47.4274 97.371 47.2969 97.8908 47.2969C98.3672 47.2969 98.7571 47.4274 99.1036 47.645C99.4501 47.8625 99.71 48.2106 99.8833 48.5587L99.2335 48.9504C98.9737 48.3412 98.5405 48.0366 97.8908 48.0366C97.5876 48.0366 97.3277 48.1236 97.1111 48.2542C96.8946 48.4282 96.8079 48.6023 96.8079 48.9068C96.8079 49.1679 96.8946 49.342 97.0678 49.516C97.2411 49.6466 97.5876 49.7771 98.0207 49.9511C98.194 49.9947 98.2806 50.0382 98.3672 50.0817C98.4539 50.1252 98.5405 50.1252 98.6704 50.2122C98.8004 50.2557 98.9303 50.2992 98.9736 50.3428C99.0603 50.3863 99.1469 50.4298 99.2335 50.4733C99.3635 50.5168 99.4501 50.6038 99.4934 50.6474C99.5367 50.6909 99.6234 50.7779 99.71 50.8649C99.7966 50.9519 99.8399 51.039 99.8833 51.126C99.9266 51.213 99.9266 51.3 99.9699 51.4306C100.013 51.5611 100.013 51.6481 100.013 51.7787C100.013 52.3008 99.8399 52.6924 99.4501 52.997C99.1902 53.1711 98.7138 53.3016 98.1074 53.3016Z" fill="#002E66"/>
<path d="M101.313 48.2542C101.183 48.2542 101.053 48.2106 100.966 48.1236C100.879 48.0366 100.836 47.9061 100.836 47.7755C100.836 47.645 100.879 47.5144 100.966 47.4274C101.053 47.3404 101.183 47.2969 101.313 47.2969C101.443 47.2969 101.573 47.3404 101.659 47.4274C101.746 47.5144 101.789 47.645 101.789 47.7755C101.789 47.9061 101.746 48.0366 101.659 48.1236C101.573 48.1671 101.486 48.2542 101.313 48.2542ZM100.966 53.2146V48.9939H101.702V53.2146H100.966Z" fill="#002E66"/>
<path d="M107.333 48.9082C107.81 48.9082 108.2 49.0823 108.46 49.3868C108.763 49.6914 108.893 50.1266 108.893 50.6052V53.216H108.156V50.6487C108.156 50.3441 108.07 50.083 107.897 49.909C107.723 49.7349 107.507 49.6479 107.247 49.6479C106.944 49.6479 106.684 49.7349 106.51 49.9525C106.337 50.1701 106.251 50.4747 106.251 50.9098V53.2595H105.514V50.6922C105.514 50.3876 105.428 50.1266 105.254 49.9525C105.081 49.7785 104.864 49.6914 104.605 49.6914C104.301 49.6914 104.042 49.7785 103.825 49.996C103.608 50.2136 103.522 50.5182 103.522 50.9533V53.303H102.785V49.0823H103.522V49.6479C103.825 49.2128 104.215 48.9952 104.778 48.9952C105.341 48.9952 105.731 49.2128 105.991 49.6914C106.294 49.1258 106.727 48.9082 107.333 48.9082Z" fill="#002E66"/>
<path d="M112.791 48.9941H113.527V53.2149H112.791V52.6057C112.488 53.0843 112.055 53.3019 111.448 53.3019C110.972 53.3019 110.582 53.1278 110.279 52.8233C109.976 52.5187 109.846 52.0835 109.846 51.5614V48.9941H110.582V51.5179C110.582 51.866 110.669 52.1271 110.842 52.3011C111.015 52.4752 111.275 52.5622 111.621 52.5622C111.968 52.5622 112.271 52.4316 112.488 52.2141C112.704 51.9965 112.834 51.6484 112.834 51.1698L112.791 48.9941Z" fill="#002E66"/>
<path d="M114.61 53.2154V47.0801H115.347V53.2154H114.61Z" fill="#002E66"/>
<path d="M119.938 48.9938H120.674V53.2145H119.938V52.4748C119.591 53.0405 119.028 53.3016 118.379 53.3016C117.772 53.3016 117.296 53.084 116.863 52.6489C116.429 52.2138 116.256 51.6916 116.256 51.0824C116.256 50.4732 116.473 49.9511 116.863 49.516C117.296 49.0808 117.772 48.8633 118.379 48.8633C119.072 48.8633 119.591 49.1244 119.938 49.69V48.9938ZM118.422 52.6054C118.855 52.6054 119.201 52.4748 119.505 52.1702C119.808 51.8657 119.938 51.5176 119.938 51.0824C119.938 50.6473 119.808 50.2992 119.505 49.9946C119.201 49.69 118.855 49.5595 118.422 49.5595C117.989 49.5595 117.642 49.69 117.382 49.9946C117.079 50.2992 116.949 50.6473 116.949 51.0824C116.949 51.5176 117.079 51.8657 117.382 52.1702C117.685 52.4748 118.032 52.6054 118.422 52.6054Z" fill="#002E66"/>
<path d="M124.053 49.6914H122.927V51.954C122.927 52.1716 122.97 52.3021 123.056 52.3891C123.143 52.4762 123.273 52.5197 123.446 52.5197C123.62 52.5197 123.836 52.5197 124.053 52.5197V53.1724C123.403 53.2594 122.97 53.2159 122.667 52.9983C122.363 52.8243 122.234 52.4762 122.234 51.954V49.6914H121.411V48.9952H122.234V48.0379L122.97 47.8203V48.9952H124.096V49.6914H124.053Z" fill="#002E66"/>
<path d="M125.266 48.2542C125.136 48.2542 125.006 48.2106 124.919 48.1236C124.832 48.0366 124.789 47.9061 124.789 47.7755C124.789 47.645 124.832 47.5144 124.919 47.4274C125.006 47.3404 125.136 47.2969 125.266 47.2969C125.395 47.2969 125.525 47.3404 125.612 47.4274C125.699 47.5144 125.742 47.645 125.742 47.7755C125.742 47.9061 125.699 48.0366 125.612 48.1236C125.525 48.1671 125.395 48.2542 125.266 48.2542ZM124.876 53.2146V48.9939H125.612V53.2146H124.876Z" fill="#002E66"/>
<path d="M130.247 52.6938C129.814 53.1289 129.294 53.3465 128.687 53.3465C128.081 53.3465 127.561 53.1289 127.128 52.6938C126.695 52.2587 126.478 51.7365 126.478 51.1273C126.478 50.5182 126.695 49.996 127.128 49.5609C127.561 49.1258 128.081 48.9082 128.687 48.9082C129.294 48.9082 129.814 49.1258 130.247 49.5609C130.68 49.996 130.896 50.5182 130.896 51.1273C130.896 51.7365 130.68 52.2587 130.247 52.6938ZM128.687 52.6068C129.121 52.6068 129.467 52.4762 129.727 52.1717C130.03 51.8671 130.16 51.519 130.16 51.0838C130.16 50.6487 130.03 50.3006 129.727 49.996C129.424 49.6914 129.077 49.5609 128.687 49.5609C128.254 49.5609 127.908 49.6914 127.648 49.996C127.345 50.3006 127.215 50.6487 127.215 51.0838C127.215 51.519 127.345 51.8671 127.648 52.1717C127.951 52.4762 128.298 52.6068 128.687 52.6068Z" fill="#002E66"/>
<path d="M133.842 48.9082C134.318 48.9082 134.708 49.0823 135.011 49.3868C135.315 49.6914 135.445 50.1266 135.445 50.6487V53.216H134.708V50.6922C134.708 50.3441 134.622 50.083 134.448 49.909C134.275 49.7349 134.015 49.6479 133.669 49.6479C133.322 49.6479 133.019 49.7785 132.802 49.996C132.586 50.2136 132.456 50.5617 132.456 51.0403V53.2595H131.719V49.0387H132.456V49.6479C132.802 49.1258 133.235 48.9082 133.842 48.9082Z" fill="#002E66"/>
<path d="M142.115 53.216L140.816 50.9533H139.429V53.216H138.65V47.3418H140.989C141.509 47.3418 141.898 47.5158 142.288 47.8639C142.635 48.212 142.808 48.6472 142.808 49.1693C142.808 49.5609 142.678 49.909 142.461 50.2136C142.245 50.5182 141.942 50.7358 141.595 50.8663L142.981 53.216H142.115ZM139.429 48.038V50.2136H140.989C141.292 50.2136 141.509 50.1266 141.725 49.909C141.942 49.6915 142.028 49.4304 142.028 49.1258C142.028 48.8212 141.942 48.5601 141.725 48.3426C141.509 48.125 141.292 48.038 140.989 48.038H139.429Z" fill="#002E66"/>
<path d="M143.977 51.4314C144.064 51.823 144.237 52.0841 144.497 52.3016C144.757 52.5192 145.104 52.6062 145.493 52.6062C146.057 52.6062 146.446 52.3887 146.706 51.9971L147.313 52.3452C146.923 52.9979 146.273 53.3024 145.493 53.3024C144.844 53.3024 144.281 53.0849 143.891 52.6933C143.458 52.2581 143.284 51.736 143.284 51.1268C143.284 50.4741 143.501 49.952 143.891 49.5603C144.281 49.1252 144.844 48.9512 145.493 48.9512C146.1 48.9512 146.62 49.1687 147.009 49.6039C147.399 50.039 147.573 50.5611 147.573 51.1703C147.573 51.2573 147.573 51.3879 147.529 51.5184H143.977V51.4314ZM145.45 49.5603C145.06 49.5603 144.757 49.6909 144.497 49.9084C144.237 50.126 144.064 50.4306 144.021 50.7787H146.836C146.793 50.3871 146.62 50.0825 146.36 49.8649C146.1 49.6474 145.753 49.5603 145.45 49.5603Z" fill="#002E66"/>
<path d="M148.742 48.2542C148.612 48.2542 148.482 48.2106 148.396 48.1236C148.309 48.0366 148.266 47.9061 148.266 47.7755C148.266 47.645 148.309 47.5144 148.396 47.4274C148.482 47.3404 148.612 47.2969 148.742 47.2969C148.872 47.2969 149.002 47.3404 149.089 47.4274C149.175 47.5144 149.219 47.645 149.219 47.7755C149.219 47.9061 149.175 48.0366 149.089 48.1236C148.959 48.1671 148.872 48.2542 148.742 48.2542ZM148.352 53.2146V48.9939H149.089V53.2146H148.352Z" fill="#002E66"/>
<path d="M154.719 48.9082C155.196 48.9082 155.586 49.0823 155.846 49.3868C156.149 49.6914 156.279 50.1266 156.279 50.6052V53.216H155.542V50.6487C155.542 50.3441 155.456 50.083 155.283 49.909C155.109 49.7349 154.893 49.6479 154.633 49.6479C154.33 49.6479 154.07 49.7349 153.896 49.9525C153.723 50.1701 153.637 50.4747 153.637 50.9098V53.2595H152.9V50.6922C152.9 50.3876 152.814 50.1266 152.684 49.9525C152.554 49.7785 152.294 49.6914 152.034 49.6914C151.731 49.6914 151.471 49.7785 151.254 49.996C151.038 50.2136 150.951 50.5182 150.951 50.9533V53.303H150.215V49.0823H150.951V49.6479C151.254 49.2128 151.644 48.9952 152.207 48.9952C152.77 48.9952 153.16 49.2128 153.42 49.6914C153.68 49.1258 154.113 48.9082 154.719 48.9082Z" fill="#002E66"/>
<path d="M160.74 48.9938H161.477V53.2145H160.74V52.4748C160.394 53.0405 159.831 53.3016 159.138 53.3016C158.531 53.3016 158.055 53.084 157.622 52.6489C157.188 52.2138 157.015 51.6916 157.015 51.0824C157.015 50.4732 157.232 49.9511 157.622 49.516C158.055 49.0808 158.531 48.8633 159.138 48.8633C159.831 48.8633 160.35 49.1244 160.74 49.69V48.9938ZM159.267 52.6054C159.701 52.6054 160.047 52.4748 160.35 52.1702C160.654 51.8657 160.784 51.5176 160.784 51.0824C160.784 50.6473 160.654 50.2992 160.35 49.9946C160.047 49.69 159.701 49.5595 159.267 49.5595C158.834 49.5595 158.488 49.69 158.228 49.9946C157.925 50.2992 157.795 50.6473 157.795 51.0824C157.795 51.5176 157.925 51.8657 158.228 52.1702C158.488 52.4748 158.834 52.6054 159.267 52.6054Z" fill="#002E66"/>
<path d="M166.068 48.9944H166.804V53.041C166.804 53.6502 166.588 54.1289 166.198 54.477C165.765 54.8251 165.288 54.9991 164.682 54.9991C164.205 54.9991 163.816 54.9121 163.469 54.738C163.122 54.564 162.863 54.3029 162.689 53.9983L163.339 53.6502C163.556 54.1289 164.032 54.3464 164.682 54.3464C165.115 54.3464 165.461 54.2159 165.721 53.9983C165.981 53.7808 166.111 53.4762 166.111 53.041V52.4319C165.721 52.9975 165.202 53.2586 164.552 53.2586C163.945 53.2586 163.469 53.041 163.036 52.6059C162.603 52.1708 162.429 51.6486 162.429 51.0395C162.429 50.4303 162.646 49.9081 163.036 49.473C163.469 49.0379 163.945 48.8203 164.552 48.8203C165.245 48.8203 165.765 49.0814 166.111 49.6471V48.9944H166.068ZM163.512 52.1273C163.816 52.4319 164.162 52.5624 164.595 52.5624C165.028 52.5624 165.375 52.4319 165.678 52.1273C165.981 51.8227 166.111 51.4746 166.111 51.0395C166.111 50.6043 165.981 50.2562 165.678 49.9952C165.375 49.6906 165.028 49.56 164.595 49.56C164.162 49.56 163.816 49.6906 163.512 49.9952C163.209 50.2997 163.079 50.6478 163.079 51.0395C163.079 51.5181 163.209 51.8662 163.512 52.1273Z" fill="#002E66"/>
<path d="M168.277 48.2542C168.147 48.2542 168.017 48.2106 167.93 48.1236C167.844 48.0366 167.8 47.9061 167.8 47.7755C167.8 47.645 167.844 47.5144 167.93 47.4274C168.017 47.3404 168.147 47.2969 168.277 47.2969C168.407 47.2969 168.537 47.3404 168.623 47.4274C168.71 47.5144 168.753 47.645 168.753 47.7755C168.753 47.9061 168.71 48.0366 168.623 48.1236C168.493 48.1671 168.407 48.2542 168.277 48.2542ZM167.887 53.2146V48.9939H168.623V53.2146H167.887Z" fill="#002E66"/>
<path d="M171.829 48.9082C172.305 48.9082 172.695 49.0823 172.998 49.3868C173.301 49.6914 173.431 50.1266 173.431 50.6487V53.216H172.695V50.6922C172.695 50.3441 172.608 50.083 172.435 49.909C172.262 49.7349 172.002 49.6479 171.655 49.6479C171.309 49.6479 171.006 49.7785 170.789 49.996C170.572 50.2136 170.443 50.5617 170.443 51.0403V53.2595H169.706V49.0387H170.443V49.6479C170.746 49.1258 171.222 48.9082 171.829 48.9082Z" fill="#002E66"/>
<path d="M174.947 51.4314C175.034 51.823 175.207 52.0841 175.467 52.3016C175.727 52.5192 176.073 52.6062 176.463 52.6062C177.026 52.6062 177.416 52.3887 177.676 51.9971L178.283 52.3452C177.893 52.9979 177.243 53.3024 176.463 53.3024C175.814 53.3024 175.251 53.0849 174.861 52.6933C174.428 52.2581 174.254 51.736 174.254 51.1268C174.254 50.4741 174.471 49.952 174.861 49.5603C175.251 49.1252 175.814 48.9512 176.42 48.9512C177.026 48.9512 177.546 49.1687 177.936 49.6039C178.326 50.039 178.499 50.5611 178.499 51.1703C178.499 51.2573 178.499 51.3879 178.456 51.5184H174.947V51.4314ZM176.42 49.5603C176.03 49.5603 175.727 49.6909 175.467 49.9084C175.207 50.126 175.034 50.4306 174.991 50.7787H177.763C177.719 50.3871 177.546 50.0825 177.286 49.8649C177.026 49.6909 176.723 49.5603 176.42 49.5603Z" fill="#002E66"/>
<path d="M182.787 47.3418H183.524V53.216H182.787V52.4763C182.441 53.042 181.878 53.303 181.185 53.303C180.578 53.303 180.102 53.0855 179.669 52.6503C179.235 52.2152 179.062 51.6931 179.062 51.0839C179.062 50.4747 179.279 49.9526 179.669 49.5174C180.102 49.0823 180.578 48.8647 181.185 48.8647C181.878 48.8647 182.397 49.1258 182.787 49.6915V47.3418ZM181.271 52.6068C181.704 52.6068 182.051 52.4763 182.354 52.1717C182.657 51.8671 182.787 51.519 182.787 51.0839C182.787 50.6488 182.657 50.3007 182.354 49.9961C182.051 49.6915 181.704 49.5609 181.271 49.5609C180.838 49.5609 180.492 49.6915 180.232 49.9961C179.928 50.3007 179.798 50.6488 179.798 51.0839C179.798 51.519 179.928 51.8671 180.232 52.1717C180.535 52.4763 180.881 52.6068 181.271 52.6068Z" fill="#002E66"/>
<path d="M30.6234 12.6621C29.7138 12.6621 28.8908 13.0102 28.2411 13.7064C27.5481 14.4026 27.2449 15.2294 27.2449 16.1431C27.2449 17.0569 27.5914 17.8836 28.2411 18.5363C28.9341 19.2325 29.7138 19.5371 30.6234 19.5371C31.5763 19.5371 32.3993 19.189 33.049 18.5363C33.742 17.8401 34.0452 17.0569 34.0452 16.1431C34.0452 15.2294 33.6987 14.4026 33.049 13.7064C32.356 13.0102 31.533 12.6621 30.6234 12.6621Z" fill="#168CCB"/>
<path d="M33.3956 22.1484H27.8513V43.8177H33.3956V22.1484Z" fill="#002E66"/>
<path d="M101.443 12.1836H95.8983V43.8173H101.443V12.1836Z" fill="#002E66"/>
<path d="M122.19 24.7155C120.544 22.6269 118.162 21.5391 115.173 21.5391C112.315 21.5391 109.846 22.6269 107.766 24.846C105.731 27.0652 104.691 29.763 104.691 32.9829C104.691 36.2028 105.731 38.9006 107.766 41.1198C109.802 43.3389 112.271 44.4267 115.173 44.4267C118.205 44.4267 120.544 43.3824 122.19 41.2503V43.8175H127.734V22.1482H122.19V24.7155ZM120.458 37.3777C119.331 38.509 117.902 39.0747 116.17 39.0747C114.437 39.0747 113.008 38.509 111.881 37.3777C110.755 36.2463 110.192 34.7669 110.192 32.9829C110.192 31.1989 110.755 29.7194 111.881 28.5881C113.008 27.4568 114.437 26.8911 116.17 26.8911C117.902 26.8911 119.331 27.4568 120.458 28.5881C121.584 29.7194 122.147 31.1989 122.147 32.9829C122.19 34.7669 121.584 36.2463 120.458 37.3777Z" fill="#002E66"/>
<path d="M137.264 16.0996L131.719 17.7966V36.5506C131.719 39.5094 132.499 41.598 134.058 42.7294C135.618 43.9042 138.303 44.2523 142.158 43.8172V38.7697C141.075 38.8132 140.209 38.8132 139.473 38.8132C138.736 38.7697 138.217 38.5521 137.827 38.2476C137.437 37.8995 137.264 37.3338 137.264 36.5941V27.587C139.949 27.587 142.158 25.4113 142.158 22.67V22.1914H137.264V16.0996Z" fill="#002E66"/>
<path d="M155.153 21.5391C151.947 21.5391 149.262 22.6269 147.053 24.846C144.844 27.0652 143.761 29.763 143.761 32.9829C143.761 36.2028 144.844 38.9006 147.053 41.1198C149.262 43.3389 151.947 44.4267 155.153 44.4267C158.358 44.4267 161.043 43.3389 163.252 41.1198C165.461 38.9006 166.588 36.2028 166.588 32.9829C166.588 29.763 165.461 27.0652 163.252 24.846C161.043 22.6704 158.358 21.5391 155.153 21.5391ZM159.354 37.2471C158.228 38.3785 156.842 38.9441 155.153 38.9441C153.507 38.9441 152.077 38.3785 150.994 37.2471C149.868 36.1158 149.348 34.6799 149.348 32.9394C149.348 31.1989 149.912 29.763 150.994 28.6316C152.121 27.5003 153.507 26.9346 155.153 26.9346C156.799 26.9346 158.228 27.5003 159.354 28.6316C160.48 29.763 161.043 31.1989 161.043 32.9394C161.043 34.7234 160.48 36.1593 159.354 37.2471Z" fill="#002E66"/>
<path d="M207 22.1484L199.16 43.8613C198.034 46.9507 196.561 49.2133 194.699 50.6057C192.836 51.9981 190.541 52.6508 187.768 52.4768V47.2988C189.241 47.3423 190.454 46.9942 191.32 46.3415C191.407 46.298 191.45 46.2109 191.537 46.1674C192.923 44.9491 193.313 42.9475 192.62 41.207L184.606 22.1484H190.67L196.301 36.7252L201.066 22.1484H207Z" fill="#002E66"/>
<path d="M180.578 22.1484C173.345 22.1484 169.663 25.6294 169.49 32.635V43.8177H174.991V32.548C174.991 29.4151 176.507 27.8051 179.495 27.8051H183.48L181.098 22.1484H180.578Z" fill="#002E66"/>
<path d="M57.3051 31.5907V43.8177H51.7608V31.5907C51.7608 30.5464 51.3277 29.5456 50.6346 28.8494C49.9416 28.1532 48.9887 27.7181 47.9058 27.7181C45.7834 27.7181 44.0508 29.4586 44.0508 31.5907V43.8177H38.5066V31.5907C38.5066 28.9799 39.5461 26.6302 41.2787 24.9332C42.968 23.2363 45.3503 22.1484 47.9058 22.1484C53.1036 22.1484 57.3051 26.3692 57.3051 31.5907Z" fill="#002E66"/>
<path d="M70.516 31.5907V43.8177H64.9718V31.5907C64.9718 30.5464 64.5386 29.5456 63.8456 28.8494C63.1526 28.1532 62.1996 27.7181 61.1168 27.7181C58.9944 27.7181 57.2618 29.4586 57.2618 31.5907V43.8177H51.7175V31.5907C51.7175 28.9799 52.7571 26.6302 54.4897 24.9332C56.1789 23.2363 58.5612 22.1484 61.1168 22.1484C66.3145 22.1484 70.516 26.3692 70.516 31.5907Z" fill="#002E66"/>
<path d="M73.5481 34.6353V22.4082H79.0924V34.6353C79.0924 35.6796 79.5255 36.6804 80.2185 37.3766C80.9116 38.0728 81.8645 38.5079 82.9473 38.5079C85.0697 38.5079 86.8023 36.7674 86.8023 34.6353V22.4082H92.3466V34.6353C92.3466 37.246 91.307 39.5957 89.5745 41.2927C87.8852 42.9897 85.5029 44.0775 82.9473 44.0775C77.7929 44.0775 73.5481 39.8133 73.5481 34.6353Z" fill="#002E66"/>
<path d="M18.7124 0.217592C16.7199 -0.130509 14.5975 -0.043484 12.605 0.435155C10.5692 0.913795 8.62007 1.82756 6.88749 3.08943C5.15491 4.35129 3.6389 6.00478 2.51273 7.87582C1.38655 9.74687 0.563574 11.9225 0.217058 14.1416C-0.129458 16.4043 -0.0428287 18.754 0.52026 21.0166C1.08335 23.2793 2.07958 25.4549 3.50896 27.3695C4.93834 29.284 6.75755 30.981 8.83664 32.2429L8.96659 32.3299C9.13985 32.417 9.3131 32.504 9.48636 32.591C11.3489 33.3307 13.4713 32.417 14.2076 30.5459C14.944 28.6749 14.0344 26.5428 12.1719 25.803C10.7858 25.2374 9.48636 24.4106 8.36018 23.3228C7.23401 22.235 6.3244 20.8861 5.718 19.4067C5.1116 17.9272 4.76508 16.2738 4.76508 14.5768C4.76508 12.8798 5.06828 11.1828 5.76131 9.57281C6.41103 7.96285 7.40727 6.48341 8.7067 5.17804C9.96282 3.91617 11.5221 2.87186 13.2114 2.17566C14.944 1.47946 16.8065 1.08785 18.7124 1.13136C20.6182 1.13136 22.5673 1.56648 24.3866 2.3062C22.6107 1.2619 20.7048 0.522181 18.7124 0.217592ZM6.67092 26.2382C6.97412 25.9336 7.45058 25.8901 7.75378 26.1947C8.66339 27.0649 9.70293 27.7611 10.8291 28.3703C11.2189 28.5443 11.3489 29.023 11.1323 29.3711C11.0024 29.6322 10.7858 29.7627 10.5259 29.7627C10.396 29.7627 10.266 29.7627 10.1361 29.6757C8.87996 29.023 7.75378 28.2397 6.71423 27.2825C6.41103 27.0214 6.36772 26.5428 6.67092 26.2382Z" fill="#168CCB"/>
<path d="M5.76091 48.1674C7.75338 48.4285 9.87579 48.298 11.8683 47.7758C13.8607 47.2101 15.8099 46.2529 17.4991 44.9475C19.1884 43.6421 20.6611 41.9451 21.744 40.0305C22.8268 38.116 23.5632 35.9404 23.8231 33.6777C24.0829 31.415 23.953 29.0654 23.3033 26.8462C22.6969 24.5836 21.614 22.4514 20.1413 20.5804C18.6686 18.7093 16.8061 17.0994 14.6837 15.881L14.5538 15.794C14.3805 15.707 14.2072 15.6199 14.034 15.5764C12.1281 14.8802 10.049 15.8375 9.35601 17.7521C8.66298 19.6666 9.6159 21.7552 11.5217 22.4514C12.9511 22.9736 14.2505 23.7568 15.42 24.8446C16.5462 25.8889 17.4991 27.1943 18.1922 28.6737C18.8852 30.1532 19.275 31.8067 19.3183 33.4601C19.3617 35.1571 19.1018 36.8541 18.4954 38.5076C17.889 40.1176 16.936 41.684 15.7232 42.9894C14.5104 44.2948 12.9944 45.3826 11.3052 46.1223C9.6159 46.862 7.75338 47.2972 5.84754 47.3407C3.9417 47.3842 1.99255 47.0361 0.17334 46.3399C1.81929 47.2537 3.72513 47.9063 5.76091 48.1674ZM17.0227 21.7987C16.7628 22.1033 16.2863 22.1468 15.9398 21.8858C14.9869 21.059 13.9473 20.3628 12.7779 19.7972C12.388 19.6231 12.2581 19.1445 12.4313 18.7964C12.5613 18.5353 12.7779 18.4048 13.0377 18.3612C13.1677 18.3612 13.2976 18.3612 13.4276 18.4483C14.6837 19.0574 15.8532 19.8407 16.8927 20.7544C17.2393 21.0155 17.2826 21.4942 17.0227 21.7987Z" fill="#002E66"/>
</g>
<defs>
<clipPath id="clip0_501_19239">
<rect width="207" height="55" fill="white"/>
</clipPath>
</defs>
</svg>
